<svg width="25" height="24" viewBox="0 0 25 24" fill="none" xmlns="http://www.w3.org/2000/svg">
<g clip-path="url(#clip0_2_411)">
<path d="M22.6402 2.55567H19.3124V1.94535C19.3124 1.53468 19.0047 1.1744 18.5871 1.12935C18.0935 1.07615 17.6757 1.45256 17.6757 1.92435V2.55571H6.87389V1.94535C6.87389 1.53468 6.56616 1.1744 6.14862 1.12935C5.65499 1.07615 5.23722 1.45256 5.23722 1.92435V2.55571H1.9094C0.854873 2.55567 0 3.3914 0 4.42237V21.009C0 22.04 0.854873 22.8757 1.9094 22.8757H22.6402C23.6947 22.8757 24.5496 22.04 24.5496 21.009V4.42237C24.5496 3.3914 23.6947 2.55567 22.6402 2.55567ZM22.913 21.009C22.913 21.1563 22.7908 21.2757 22.6402 21.2757H1.9094C1.7588 21.2757 1.63663 21.1563 1.63663 21.009V8.42235H22.9129V21.009H22.913ZM22.913 6.82237H1.63663V4.42237C1.63663 4.27513 1.75875 4.1557 1.9094 4.1557H5.23722V4.76606C5.23722 5.17673 5.54495 5.53701 5.96249 5.58206C6.45612 5.63535 6.87389 5.2589 6.87389 4.7871V4.1557H17.6757V4.76606C17.6757 5.17673 17.9835 5.53701 18.401 5.58206C18.8946 5.63535 19.3124 5.2589 19.3124 4.7871V4.1557H22.6402C22.7908 4.1557 22.913 4.27509 22.913 4.42237V6.82237Z" fill="#19624E"/>
<path d="M6.24099 12.1557H4.27879C3.85871 12.1557 3.49018 12.4565 3.4441 12.8647C3.38968 13.3473 3.77471 13.7557 4.25731 13.7557H6.21946C6.63953 13.7557 7.00807 13.4549 7.05414 13.0467C7.10861 12.5641 6.72364 12.1557 6.24099 12.1557Z" fill="#19624E"/>
<path d="M10.9249 12.1557H8.96263C8.54255 12.1557 8.17402 12.4565 8.12794 12.8647C8.07352 13.3473 8.4585 13.7557 8.94115 13.7557H10.9034C11.3235 13.7557 11.692 13.4549 11.7381 13.0467C11.7925 12.5641 11.4075 12.1557 10.9249 12.1557Z" fill="#19624E"/>
<path d="M15.6085 12.1557H13.6462C13.2261 12.1557 12.8576 12.4565 12.8115 12.8647C12.7571 13.3473 13.1421 13.7557 13.6247 13.7557H15.587C16.0071 13.7557 16.3756 13.4549 16.4217 13.0467C16.4761 12.5641 16.0911 12.1557 15.6085 12.1557Z" fill="#19624E"/>
<path d="M20.2923 12.1557H18.3302C17.9101 12.1557 17.5416 12.4565 17.4955 12.8647C17.4411 13.3473 17.8261 13.7557 18.3087 13.7557H20.2708C20.6909 13.7557 21.0595 13.4549 21.1055 13.0467C21.16 12.5641 20.775 12.1557 20.2923 12.1557Z" fill="#19624E"/>
<path d="M6.24099 15.9424H4.27879C3.85871 15.9424 3.49018 16.2432 3.4441 16.6514C3.38968 17.134 3.77471 17.5424 4.25731 17.5424H6.21946C6.63953 17.5424 7.00807 17.2416 7.05414 16.8334C7.10861 16.3508 6.72364 15.9424 6.24099 15.9424Z" fill="#19624E"/>
<path d="M10.9249 15.9424H8.96263C8.54255 15.9424 8.17402 16.2432 8.12794 16.6514C8.07352 17.134 8.4585 17.5424 8.94115 17.5424H10.9034C11.3235 17.5424 11.692 17.2416 11.7381 16.8334C11.7925 16.3508 11.4075 15.9424 10.9249 15.9424Z" fill="#19624E"/>
<path d="M15.6085 15.9424H13.6462C13.2261 15.9424 12.8576 16.2432 12.8115 16.6514C12.7571 17.134 13.1421 17.5424 13.6247 17.5424H15.587C16.0071 17.5424 16.3756 17.2416 16.4217 16.8334C16.4761 16.3508 16.0911 15.9424 15.6085 15.9424Z" fill="#19624E"/>
<path d="M20.2923 15.9424H18.3302C17.9101 15.9424 17.5416 16.2432 17.4955 16.6514C17.4411 17.134 17.8261 17.5424 18.3087 17.5424H20.2708C20.6909 17.5424 21.0595 17.2416 21.1055 16.8334C21.16 16.3508 20.775 15.9424 20.2923 15.9424Z" fill="#19624E"/>
</g>
<defs>
<clipPath id="clip0_2_411">
<rect width="24.5496" height="24" fill="white"/>
</clipPath>
</defs>
</svg>
